<?xml version="1.0" encoding="UTF-8"?>
<svg version="1.1" viewBox="0 0 24 24" xmlns="http://www.w3.org/2000/svg" xmlns:cc="http://creativecommons.org/ns#" xmlns:dc="http://purl.org/dc/elements/1.1/" xmlns:rdf="http://www.w3.org/1999/02/22-rdf-syntax-ns#"><metadata><rdf:RDF><cc:Work rdf:about=""><dc:format>image/svg+xml</dc:format><dc:type rdf:resource="http://purl.org/dc/dcmitype/StillImage"/><dc:title/></cc:Work></rdf:RDF></metadata><defs><style><![CDATA[
      .sprite { display: none; }
      .sprite:target { display: inline; }
    ]]></style></defs><g id="email" className="sprite"><path d="M12 2c5.514 0 10 4.486 10 10s-4.486 10-10 10-10-4.486-10-10 4.486-10 10-10zm0-2c-6.627 0-12 5.373-12 12s5.373 12 12 12 12-5.373 12-12-5.373-12-12-12zm.021 17.824c-3.907 0-6.021-2.438-6.021-5.586 0-3.363 2.381-6.062 6.638-6.062 3.107 0 5.362 2.019 5.362 4.801 0 4.356-5.165 5.506-4.906 3.021-.354.555-.927 1.177-2.026 1.177-1.257 0-2.04-.92-2.04-2.403 0-2.222 1.461-4.1 3.19-4.1.829 0 1.399.438 1.638 1.11l.232-.816h1.169c-.122.416-1.161 4.264-1.161 4.264-.323 1.333.675 1.356 1.562.648 1.665-1.29 1.75-4.664-.499-6.071-2.411-1.445-7.897-.551-7.897 4.347 0 2.806 1.976 4.691 4.914 4.691 1.719 0 2.771-.465 3.648-.974l.588.849c-.856.482-2.231 1.104-4.391 1.104zm-1.172-7.153c-.357.67-.588 1.538-.588 2.212 0 1.805 1.761 1.816 2.626.12.356-.697.586-1.586.586-2.265 0-1.458-1.748-1.717-2.624-.067z"/></g><g id="telefoon" className="sprite"><path d="M12 2c5.514 0 10 4.486 10 10s-4.486 10-10 10-10-4.486-10-10 4.486-10 10-10zm0-2c-6.627 0-12 5.373-12 12s5.373 12 12 12 12-5.373 12-12-5.373-12-12-12zm4.5 17.311l-1.76-3.397-1.032.505c-1.12.543-3.4-3.91-2.305-4.497l1.042-.513-1.747-3.409-1.053.52c-3.601 1.877 2.117 12.991 5.8 11.308l1.055-.517z"/></g><g id="whatsapp" className="sprite"><path d="M12.031 6.172c-3.181 0-5.767 2.586-5.768 5.766-.001 1.298.38 2.27 1.019 3.287l-.582 2.128 2.182-.573c.978.58 1.911.928 3.145.929 3.178 0 5.767-2.587 5.768-5.766.001-3.187-2.575-5.77-5.764-5.771zm3.392 8.244c-.144.405-.837.774-1.17.824-.299.045-.677.063-1.092-.069-.252-.08-.575-.187-.988-.365-1.739-.751-2.874-2.502-2.961-2.617-.087-.116-.708-.94-.708-1.793s.448-1.273.607-1.446c.159-.173.346-.217.462-.217l.332.006c.106.005.249-.04.39.298.144.347.491 1.2.534 1.287.043.087.072.188.014.304-.058.116-.087.188-.173.289l-.26.304c-.087.086-.177.18-.076.354.101.174.449.741.964 1.201.662.591 1.221.774 1.394.86s.274.072.376-.043c.101-.116.433-.506.549-.68.116-.173.231-.145.39-.087s1.011.477 1.184.564.289.13.332.202c.045.072.045.419-.1.824zm-3.423-14.416c-6.627 0-12 5.373-12 12s5.373 12 12 12 12-5.373 12-12-5.373-12-12-12zm.029 18.88c-1.161 0-2.305-.292-3.318-.844l-3.677.964.984-3.595c-.607-1.052-.927-2.246-.926-3.468.001-3.825 3.113-6.937 6.937-6.937 1.856.001 3.598.723 4.907 2.034 1.31 1.311 2.031 3.054 2.03 4.908-.001 3.825-3.113 6.938-6.937 6.938z"/></g><g id="telegram" className="sprite" clip-rule="evenodd" fill-rule="evenodd" stroke-linejoin="round" stroke-miterlimit="1.4142"><path d="m12 0c-6.626 0-12 5.372-12 12 0 6.627 5.374 12 12 12 6.627 0 12-5.373 12-12 0-6.628-5.373-12-12-12zm3.224 17.871c0.188 0.133 0.43 0.166 0.646 0.085 0.215-0.082 0.374-0.267 0.422-0.491 0.507-2.382 1.737-8.412 2.198-10.578 0.035-0.164-0.023-0.334-0.151-0.443-0.129-0.109-0.307-0.14-0.465-0.082-2.446 0.906-9.979 3.732-13.058 4.871-0.195 0.073-0.322 0.26-0.316 0.467 7e-3 0.206 0.146 0.385 0.346 0.445 1.381 0.413 3.193 0.988 3.193 0.988s0.847 2.558 1.288 3.858c0.056 0.164 0.184 0.292 0.352 0.336 0.169 0.044 0.348-2e-3 0.474-0.121 0.709-0.669 1.805-1.704 1.805-1.704s2.084 1.527 3.266 2.369zm-6.423-5.062 0.98 3.231 0.218-2.046s3.783-3.413 5.941-5.358c0.063-0.057 0.071-0.153 0.019-0.22s-0.148-0.083-0.219-0.037c-2.5 1.596-6.939 4.43-6.939 4.43z"/></g><g id="werkteveel" className="sprite"><path d="M21.854 13.683l1.998.159c-.132.854-.351 1.676-.652 2.46l-1.8-.905c.2-.551.353-1.123.454-1.714zm-2.548 7.826l-1.413-1.443c-.486.356-1.006.668-1.555.933l.669 1.899c.821-.377 1.591-.844 2.299-1.389zm1.226-4.309c-.335.546-.719 1.057-1.149 1.528l1.404 1.433c.583-.627 1.099-1.316 1.539-2.058l-1.794-.903zm-20.532-5.2c0 6.627 5.375 12 12.004 12 1.081 0 2.124-.156 3.12-.424l-.665-1.894c-.787.2-1.607.318-2.455.318-5.516 0-10.003-4.486-10.003-10s4.487-10 10.003-10c2.235 0 4.293.744 5.959 1.989l-2.05 2.049 7.015 1.354-1.355-7.013-2.184 2.183c-2.036-1.598-4.595-2.562-7.385-2.562-6.629 0-12.004 5.373-12.004 12zm23.773-2.359h-2.076c.163.661.261 1.344.288 2.047l2.015.161c-.01-.755-.085-1.494-.227-2.208zm-9.005 5.359v-1.419h-2.594v-1.295l2.722-3.653h1.288v3.689h.816v1.259h-.815v1.419h-1.417zm0-2.679v-1.695l-1.263 1.695h1.263zm-7.768 2.679c0-.961.275-1.709 1.234-2.419 1.129-.836 1.99-1.165 1.99-1.939 0-.512-.308-.83-.804-.83-.69 0-.855.723-.855 1.411h-1.421c-.06-1.782.951-2.713 2.338-2.713 1.287 0 2.22.856 2.22 2.036 0 .589-.183 1.056-.576 1.469-.621.655-1.552.985-2.163 1.682h2.774v1.303h-4.737z"/></g><g id="eurodown" className="sprite"><path d="M19.5 15c-2.485 0-4.5 2.015-4.5 4.5s2.015 4.5 4.5 4.5 4.5-2.015 4.5-4.5-2.015-4.5-4.5-4.5zm0 7l-2.5-3h2v-2h1v2h2l-2.5 3zm-4.703 1.974l-.568.026c-6.421 0-10.052-4.152-11.085-9h-3.144l.333-2h2.53c-.044-.666-.042-1.334.007-2h-2.203l.333-2h2.162c1.053-4.848 4.635-9 10.594-9 1.628 0 3.39.28 5.244.832l-.765 3.162c-1.445-.417-2.703-.62-3.836-.62-3.299 0-5.368 2.52-6.154 5.626h7.755l-.333 2h-7.746c-.051.665-.045 1.336.014 2h7.398l-.333 2h-6.716c.688 2.532 2.267 4.65 4.771 5.304.176 1.414.806 2.687 1.742 3.67z"/></g><g id="dollardown" className="sprite"><path d="M18.5 15c-2.485 0-4.5 2.015-4.5 4.5s2.015 4.5 4.5 4.5 4.5-2.015 4.5-4.5-2.015-4.5-4.5-4.5zm0 7l-2.5-3h2v-2h1v2h2l-2.5 3zm-6.346-1.106c-.918.506-1.996.839-3.154 1.001v2.105h-2v-1.996c-2.069-.037-4.213-.53-6-1.453l.909-3.289c1.912.742 4.457 1.53 6.45 1.079 2.299-.521 2.769-2.885.229-4.021-1.863-.867-7.557-1.611-7.557-6.487 0-2.725 2.078-5.165 5.969-5.7v-2.133h2v2.036c1.447.038 3.071.29 4.885.841l-.725 3.295c-1.535-.539-3.232-1.029-4.885-.929-2.979.174-3.24 2.752-1.162 3.832 2.854 1.342 6.425 2.401 7.534 5.203-2.025 1.497-3.058 4.039-2.493 6.616z"/></g><g id="notvisible" className="sprite"><path d="M21.172 24l-7.387-7.387c-1.388.874-3.024 1.387-4.785 1.387-4.971 0-9-4.029-9-9s4.029-9 9-9 9 4.029 9 9c0 1.761-.514 3.398-1.387 4.785l7.387 7.387-2.828 2.828zm-12.172-8c3.859 0 7-3.14 7-7s-3.141-7-7-7-7 3.14-7 7 3.141 7 7 7zm-3-8c.552 0 1 .448 1 1s-.448 1-1 1-1-.448-1-1 .448-1 1-1zm3 0c.552 0 1 .448 1 1s-.448 1-1 1-1-.448-1-1 .448-1 1-1zm3 0c.552 0 1 .448 1 1s-.448 1-1 1-1-.448-1-1 .448-1 1-1z"/></g></svg>
